<mxfile host="Electron" modified="2024-09-19T08:17:37.684Z" agent="Mozilla/5.0 (X11; Linux x86_64) AppleWebKit/537.36 (KHTML, like Gecko) draw.io/24.5.3 Chrome/124.0.6367.207 Electron/30.0.6 Safari/537.36" etag="Z3U6FauwaKJPsxxxBW9W" version="24.5.3" type="device">
  <diagram name="第 1 页" id="bjAvxFkPB1qD1nIxdEg0">
    <mxGraphModel dx="1231" dy="760" grid="0" gridSize="10" guides="1" tooltips="1" connect="1" arrows="1" fold="1" page="1" pageScale="1" pageWidth="4000" pageHeight="3000" math="0" shadow="0">
      <root>
        <mxCell id="0" />
        <mxCell id="1" parent="0" />
        <mxCell id="2AkEG0YdCzTvmojj7ARi-1" value="cpu" style="rounded=1;whiteSpace=wrap;html=1;strokeWidth=2;fontSize=15;" vertex="1" parent="1">
          <mxGeometry x="550" y="80" width="120" height="50" as="geometry" />
        </mxCell>
        <mxCell id="2AkEG0YdCzTvmojj7ARi-2" value="L1 ICache" style="rounded=1;whiteSpace=wrap;html=1;strokeWidth=2;fontSize=15;" vertex="1" parent="1">
          <mxGeometry x="490" y="150" width="90" height="40" as="geometry" />
        </mxCell>
        <mxCell id="2AkEG0YdCzTvmojj7ARi-3" value="L1 DCache" style="rounded=1;whiteSpace=wrap;html=1;strokeWidth=2;fontSize=15;" vertex="1" parent="1">
          <mxGeometry x="640" y="150" width="90" height="40" as="geometry" />
        </mxCell>
        <mxCell id="2AkEG0YdCzTvmojj7ARi-4" value="L2 Cache" style="rounded=1;whiteSpace=wrap;html=1;strokeWidth=2;fontSize=15;" vertex="1" parent="1">
          <mxGeometry x="490" y="270" width="240" height="40" as="geometry" />
        </mxCell>
        <mxCell id="2AkEG0YdCzTvmojj7ARi-5" value="L3 Cache" style="rounded=1;whiteSpace=wrap;html=1;strokeWidth=2;fontSize=15;" vertex="1" parent="1">
          <mxGeometry x="450" y="390" width="340" height="40" as="geometry" />
        </mxCell>
        <mxCell id="2AkEG0YdCzTvmojj7ARi-7" value="Xbar" style="rounded=1;whiteSpace=wrap;html=1;strokeWidth=2;fontSize=15;" vertex="1" parent="1">
          <mxGeometry x="490" y="210" width="240" height="40" as="geometry" />
        </mxCell>
        <mxCell id="2AkEG0YdCzTvmojj7ARi-8" value="XBar" style="rounded=1;whiteSpace=wrap;html=1;strokeWidth=2;fontSize=15;" vertex="1" parent="1">
          <mxGeometry x="450" y="330" width="340" height="40" as="geometry" />
        </mxCell>
        <mxCell id="2AkEG0YdCzTvmojj7ARi-10" value="XBar" style="rounded=1;whiteSpace=wrap;html=1;strokeWidth=2;fontSize=15;" vertex="1" parent="1">
          <mxGeometry x="450" y="450" width="340" height="40" as="geometry" />
        </mxCell>
        <mxCell id="2AkEG0YdCzTvmojj7ARi-11" value="DramSim3 Mem" style="rounded=1;whiteSpace=wrap;html=1;strokeWidth=2;fontSize=15;" vertex="1" parent="1">
          <mxGeometry x="620" y="510" width="340" height="40" as="geometry" />
        </mxCell>
        <mxCell id="2AkEG0YdCzTvmojj7ARi-12" value="Briage" style="rounded=1;whiteSpace=wrap;html=1;strokeWidth=2;fontSize=15;" vertex="1" parent="1">
          <mxGeometry x="430" y="510" width="110" height="40" as="geometry" />
        </mxCell>
        <mxCell id="2AkEG0YdCzTvmojj7ARi-13" value="uart" style="rounded=1;whiteSpace=wrap;html=1;strokeWidth=2;fontSize=15;" vertex="1" parent="1">
          <mxGeometry x="370" y="650" width="60" height="40" as="geometry" />
        </mxCell>
        <mxCell id="2AkEG0YdCzTvmojj7ARi-14" value="lite" style="rounded=1;whiteSpace=wrap;html=1;strokeWidth=2;fontSize=15;" vertex="1" parent="1">
          <mxGeometry x="450" y="650" width="60" height="40" as="geometry" />
        </mxCell>
        <mxCell id="2AkEG0YdCzTvmojj7ARi-15" value="IOBUS XBar" style="rounded=1;whiteSpace=wrap;html=1;strokeWidth=2;fontSize=15;" vertex="1" parent="1">
          <mxGeometry x="405" y="580" width="160" height="40" as="geometry" />
        </mxCell>
        <mxCell id="2AkEG0YdCzTvmojj7ARi-16" value="nemu mmc镜像" style="rounded=1;whiteSpace=wrap;html=1;strokeWidth=2;fontSize=15;" vertex="1" parent="1">
          <mxGeometry x="530" y="650" width="90" height="40" as="geometry" />
        </mxCell>
        <mxCell id="2AkEG0YdCzTvmojj7ARi-18" value="" style="endArrow=none;html=1;rounded=0;entryX=0.25;entryY=1;entryDx=0;entryDy=0;exitX=1;exitY=0;exitDx=0;exitDy=0;strokeWidth=2;fontSize=15;" edge="1" parent="1" source="2AkEG0YdCzTvmojj7ARi-2" target="2AkEG0YdCzTvmojj7ARi-1">
          <mxGeometry width="50" height="50" relative="1" as="geometry">
            <mxPoint x="370" y="300" as="sourcePoint" />
            <mxPoint x="420" y="250" as="targetPoint" />
          </mxGeometry>
        </mxCell>
        <mxCell id="2AkEG0YdCzTvmojj7ARi-19" value="" style="endArrow=none;html=1;rounded=0;entryX=0.75;entryY=1;entryDx=0;entryDy=0;exitX=0;exitY=0;exitDx=0;exitDy=0;strokeWidth=2;fontSize=15;" edge="1" parent="1" source="2AkEG0YdCzTvmojj7ARi-3" target="2AkEG0YdCzTvmojj7ARi-1">
          <mxGeometry width="50" height="50" relative="1" as="geometry">
            <mxPoint x="590" y="160" as="sourcePoint" />
            <mxPoint x="590" y="140" as="targetPoint" />
          </mxGeometry>
        </mxCell>
        <mxCell id="2AkEG0YdCzTvmojj7ARi-20" value="" style="endArrow=none;html=1;rounded=0;entryX=0.5;entryY=1;entryDx=0;entryDy=0;exitX=0.188;exitY=0;exitDx=0;exitDy=0;exitPerimeter=0;strokeWidth=2;fontSize=15;" edge="1" parent="1" source="2AkEG0YdCzTvmojj7ARi-7" target="2AkEG0YdCzTvmojj7ARi-2">
          <mxGeometry width="50" height="50" relative="1" as="geometry">
            <mxPoint x="320" y="350" as="sourcePoint" />
            <mxPoint x="370" y="300" as="targetPoint" />
          </mxGeometry>
        </mxCell>
        <mxCell id="2AkEG0YdCzTvmojj7ARi-21" value="" style="endArrow=none;html=1;rounded=0;entryX=0.5;entryY=1;entryDx=0;entryDy=0;exitX=0.812;exitY=0.01;exitDx=0;exitDy=0;exitPerimeter=0;strokeWidth=2;fontSize=15;" edge="1" parent="1" source="2AkEG0YdCzTvmojj7ARi-7" target="2AkEG0YdCzTvmojj7ARi-3">
          <mxGeometry width="50" height="50" relative="1" as="geometry">
            <mxPoint x="684" y="213" as="sourcePoint" />
            <mxPoint x="310" y="390" as="targetPoint" />
          </mxGeometry>
        </mxCell>
        <mxCell id="2AkEG0YdCzTvmojj7ARi-22" value="" style="endArrow=none;html=1;rounded=0;entryX=0.5;entryY=1;entryDx=0;entryDy=0;exitX=0.5;exitY=0;exitDx=0;exitDy=0;strokeWidth=2;fontSize=15;" edge="1" parent="1" source="2AkEG0YdCzTvmojj7ARi-4" target="2AkEG0YdCzTvmojj7ARi-7">
          <mxGeometry width="50" height="50" relative="1" as="geometry">
            <mxPoint x="800" y="310" as="sourcePoint" />
            <mxPoint x="850" y="260" as="targetPoint" />
          </mxGeometry>
        </mxCell>
        <mxCell id="2AkEG0YdCzTvmojj7ARi-23" value="" style="endArrow=none;html=1;rounded=0;entryX=0.5;entryY=1;entryDx=0;entryDy=0;exitX=0.472;exitY=-0.01;exitDx=0;exitDy=0;exitPerimeter=0;strokeWidth=2;fontSize=15;" edge="1" parent="1" source="2AkEG0YdCzTvmojj7ARi-8" target="2AkEG0YdCzTvmojj7ARi-4">
          <mxGeometry width="50" height="50" relative="1" as="geometry">
            <mxPoint x="800" y="370" as="sourcePoint" />
            <mxPoint x="850" y="320" as="targetPoint" />
          </mxGeometry>
        </mxCell>
        <mxCell id="2AkEG0YdCzTvmojj7ARi-24" value="" style="endArrow=none;html=1;rounded=0;entryX=0.472;entryY=0.99;entryDx=0;entryDy=0;entryPerimeter=0;exitX=0.473;exitY=-0.02;exitDx=0;exitDy=0;exitPerimeter=0;strokeWidth=2;fontSize=15;" edge="1" parent="1" source="2AkEG0YdCzTvmojj7ARi-5" target="2AkEG0YdCzTvmojj7ARi-8">
          <mxGeometry width="50" height="50" relative="1" as="geometry">
            <mxPoint x="850" y="460" as="sourcePoint" />
            <mxPoint x="900" y="410" as="targetPoint" />
          </mxGeometry>
        </mxCell>
        <mxCell id="2AkEG0YdCzTvmojj7ARi-25" value="" style="endArrow=none;html=1;rounded=0;entryX=0.468;entryY=1;entryDx=0;entryDy=0;entryPerimeter=0;exitX=0.469;exitY=0.01;exitDx=0;exitDy=0;exitPerimeter=0;strokeWidth=2;fontSize=15;" edge="1" parent="1" source="2AkEG0YdCzTvmojj7ARi-10" target="2AkEG0YdCzTvmojj7ARi-5">
          <mxGeometry width="50" height="50" relative="1" as="geometry">
            <mxPoint x="860" y="490" as="sourcePoint" />
            <mxPoint x="910" y="440" as="targetPoint" />
          </mxGeometry>
        </mxCell>
        <mxCell id="2AkEG0YdCzTvmojj7ARi-26" value="" style="endArrow=none;html=1;rounded=0;entryX=0.105;entryY=1.01;entryDx=0;entryDy=0;entryPerimeter=0;exitX=0.5;exitY=0;exitDx=0;exitDy=0;strokeWidth=2;fontSize=15;" edge="1" parent="1" source="2AkEG0YdCzTvmojj7ARi-12" target="2AkEG0YdCzTvmojj7ARi-10">
          <mxGeometry width="50" height="50" relative="1" as="geometry">
            <mxPoint x="660" y="630" as="sourcePoint" />
            <mxPoint x="710" y="580" as="targetPoint" />
          </mxGeometry>
        </mxCell>
        <mxCell id="2AkEG0YdCzTvmojj7ARi-27" value="" style="endArrow=none;html=1;rounded=0;entryX=0.779;entryY=1;entryDx=0;entryDy=0;entryPerimeter=0;exitX=0.278;exitY=0.01;exitDx=0;exitDy=0;exitPerimeter=0;strokeWidth=2;fontSize=15;" edge="1" parent="1" source="2AkEG0YdCzTvmojj7ARi-11" target="2AkEG0YdCzTvmojj7ARi-10">
          <mxGeometry width="50" height="50" relative="1" as="geometry">
            <mxPoint x="720" y="640" as="sourcePoint" />
            <mxPoint x="770" y="590" as="targetPoint" />
          </mxGeometry>
        </mxCell>
        <mxCell id="2AkEG0YdCzTvmojj7ARi-28" value="" style="endArrow=none;html=1;rounded=0;entryX=0.469;entryY=1.01;entryDx=0;entryDy=0;entryPerimeter=0;exitX=0.479;exitY=0.01;exitDx=0;exitDy=0;exitPerimeter=0;strokeWidth=2;fontSize=15;" edge="1" parent="1" source="2AkEG0YdCzTvmojj7ARi-15" target="2AkEG0YdCzTvmojj7ARi-12">
          <mxGeometry width="50" height="50" relative="1" as="geometry">
            <mxPoint x="710" y="660" as="sourcePoint" />
            <mxPoint x="760" y="610" as="targetPoint" />
          </mxGeometry>
        </mxCell>
        <mxCell id="2AkEG0YdCzTvmojj7ARi-29" value="" style="endArrow=none;html=1;rounded=0;entryX=0.089;entryY=1.01;entryDx=0;entryDy=0;entryPerimeter=0;exitX=0.813;exitY=0;exitDx=0;exitDy=0;exitPerimeter=0;strokeWidth=2;fontSize=15;" edge="1" parent="1" source="2AkEG0YdCzTvmojj7ARi-13" target="2AkEG0YdCzTvmojj7ARi-15">
          <mxGeometry width="50" height="50" relative="1" as="geometry">
            <mxPoint x="300" y="650" as="sourcePoint" />
            <mxPoint x="350" y="600" as="targetPoint" />
          </mxGeometry>
        </mxCell>
        <mxCell id="2AkEG0YdCzTvmojj7ARi-30" value="" style="endArrow=none;html=1;rounded=0;entryX=0.089;entryY=1.01;entryDx=0;entryDy=0;entryPerimeter=0;exitX=0.813;exitY=0;exitDx=0;exitDy=0;exitPerimeter=0;strokeWidth=2;fontSize=15;" edge="1" parent="1">
          <mxGeometry width="50" height="50" relative="1" as="geometry">
            <mxPoint x="479.8" y="650" as="sourcePoint" />
            <mxPoint x="479.8" y="620" as="targetPoint" />
          </mxGeometry>
        </mxCell>
        <mxCell id="2AkEG0YdCzTvmojj7ARi-31" value="" style="endArrow=none;html=1;rounded=0;entryX=0.089;entryY=1.01;entryDx=0;entryDy=0;entryPerimeter=0;exitX=0.813;exitY=0;exitDx=0;exitDy=0;exitPerimeter=0;strokeWidth=2;fontSize=15;" edge="1" parent="1">
          <mxGeometry width="50" height="50" relative="1" as="geometry">
            <mxPoint x="550" y="650" as="sourcePoint" />
            <mxPoint x="550" y="620" as="targetPoint" />
          </mxGeometry>
        </mxCell>
        <mxCell id="2AkEG0YdCzTvmojj7ARi-32" value="briage 用于连接两种不同类型的 Xbar" style="text;html=1;align=center;verticalAlign=middle;whiteSpace=wrap;rounded=0;fontSize=14;" vertex="1" parent="1">
          <mxGeometry x="230" y="510" width="140" height="30" as="geometry" />
        </mxCell>
        <mxCell id="2AkEG0YdCzTvmojj7ARi-33" value="各级Cache可能有含有自己的预取器" style="text;html=1;align=center;verticalAlign=middle;whiteSpace=wrap;rounded=0;fontSize=14;" vertex="1" parent="1">
          <mxGeometry x="860" y="290" width="140" height="30" as="geometry" />
        </mxCell>
      </root>
    </mxGraphModel>
  </diagram>
</mxfile>
